<?xml version="1.0"?>
<svg xmlns="http://www.w3.org/2000/svg" height="512px" viewBox="-46 0 511 512" width="512px" class=""><g transform="matrix(-1 0 0 1 465 0)"><path d="m95.800781 144.519531-.191406.1875c-3.941406 3.863281-4.007813 10.1875-.144531 14.132813 1.957031 1.996094 4.546875 2.996094 7.136718 2.996094 2.523438 0 5.046876-.949219 6.992188-2.851563l.191406-.1875c3.941406-3.863281 4.007813-10.1875.144532-14.132813-3.859376-3.941406-10.1875-4.003906-14.128907-.144531zm0 0" data-original="#000000" class="active-path" data-old_color="#EBE9E9" fill="#EFEDED"/><path d="m418.871094 81.898438c-.019532-2.671876-1.109375-5.226563-3.023438-7.089844-19.503906-18.996094-45.578125-30.421875-73.410156-32.183594-7.699219-.484375-14.394531-.636719-20.300781-.773438-15.691407-.355468-24.800781-.570312-34.199219-6.140624l7.007812-7.007813c1.949219-1.953125 2.925782-4.507813 2.925782-7.066406 0-2.558594-.976563-5.113281-2.925782-7.066407-3.902343-3.898437-10.226562-3.898437-14.132812 0l-8.125 8.128907-19.773438-19.773438c-1.875-1.875-4.414062-2.925781-7.066406-2.925781-.019531 0-.042968 0-.0625 0-2.675781.0195312-5.230468 1.105469-7.09375 3.019531l-19.027344 19.542969-7.996093-7.992188c-3.902344-3.902343-10.226563-3.902343-14.128907 0-1.953124 1.949219-2.925781 4.507813-2.925781 7.066407 0 2.554687.972657 5.113281 2.925781 7.0625l7.992188 7.992187-18.019531 17.546875-125.515625 46.996094c-3.316406 1.242187-5.726563 4.144531-6.339844 7.632813l-14.886719 84.851562c-22.261719.335938-40.269531 18.332031-40.269531 40.414062 0 22.292969 18.351562 40.429688 40.90625 40.429688 1.425781 0 2.835938-.074219 4.226562-.214844l160.789063 158.316406v5.320313h-39.378906c-20.40625 0-37.007813 16.601563-37.007813 37.007813v27.015624c0 5.519532 4.476563 9.992188 9.992188 9.992188h148.417968c5.519532 0 9.992188-4.472656 9.992188-9.992188 0-5.519531-4.472656-9.992187-9.992188-9.992187h-138.425781v-17.023437c0-9.386719 7.636719-17.023438 17.023438-17.023438h163.296875c9.386718 0 17.023437 7.636719 17.023437 17.023438v27.015624c0 5.519532 4.472657 9.992188 9.992188 9.992188 5.515625 0 9.992187-4.472656 9.992187-9.992188v-27.015624c0-20.40625-16.601562-37.007813-37.007812-37.007813h-39.378906v-10.867187c0-23.308594-18.960938-42.269532-42.269532-42.269532-3.164062 0-6.242187.359375-9.210937 1.023438l-11.277344-62.242188c-.527344-2.90625-2.3125-5.433594-4.882813-6.898437l-141.066406-80.421875c.039063-.722656.0625-1.445313.0625-2.175782 0-1.355468-.070312-2.699218-.203125-4.019531l132.71875-130.675781c9.359375 11.644531 9.578125 21 10.007813 39.714844.132812 5.90625.285156 12.597656.773437 20.300781 1.757813 27.832031 13.1875 53.902344 32.179688 73.410156 1.867187 1.914063 4.421875 3.003907 7.09375 3.019531h.066406c2.648437 0 5.191406-1.050781 7.066406-2.925781l33.160157-33.160156c8.480468 4.253906 17.6875 6.359375 26.859374 6.359375 15.304688 0 30.507813-5.835938 42.050782-17.195312 10.117187-9.960938 16.265625-23.1875 17.320312-37.238282.824219-10.984375-1.503906-21.917968-6.597656-31.558594l31.128906-31.128906c1.890625-1.894531 2.945313-4.460937 2.929688-7.136718zm-398.386719 152.234374c0-11.277343 9.386719-20.449218 20.921875-20.449218 11.539062 0 20.925781 9.175781 20.925781 20.449218 0 11.273438-9.386719 20.449219-20.925781 20.449219-11.535156 0-20.921875-9.171875-20.921875-20.449219zm53.660156 24.21875 142.941407 140.738282c-2.570313 2.898437-4.757813 6.144531-6.464844 9.667968l-144.589844-142.363281c3.070312-2.292969 5.804688-5 8.113281-8.042969zm196.832031 168.765626v10.867187h-44.570312v-10.867187c0-12.289063 9.996094-22.285157 22.285156-22.285157 12.289063 0 22.285156 9.996094 22.285156 22.285157zm-54.621093-56.785157-83.394531-82.113281 76.410156 43.5625zm-150.320313-168.460937 23.121094-22.765625c3.933594-3.871094 3.980469-10.195313.109375-14.128907-3.871094-3.933593-10.199219-3.980468-14.128906-.109374l-10.898438 10.730468 10.113281-57.652344 78.160157-29.261718-28.273438 27.835937c-1.984375 1.957031-2.980469 4.535157-2.980469 7.117188-.003906 2.535156.953126 5.066406 2.871094 7.015625 1.957032 1.984375 4.535156 2.980468 7.121094 2.980468 2.53125 0 5.0625-.957031 7.007812-2.871093l54.664063-53.824219 8.078125 8.078125-126.855469 124.898437c-2.308593-3.039062-5.042969-5.75-8.109375-8.042968zm294.035156-27.152344c-10.617187 10.453125-25.886718 13.882812-39.570312 9.753906l23.480469-23.480468 25.699219-25.695313c4.558593 13.542969 1.1875 28.792969-9.609376 39.421875zm5.011719-63.085938c-.003906.003907-.003906.003907-.007812.003907l-23.964844 23.96875-75.664063 75.664062c-11.667968-14.988281-18.652343-33.492187-19.890624-53.078125-.460938-7.300781-.609376-13.78125-.738282-19.496094-.53125-23.289062-.894531-38.75-21.007812-59.121093-.375-.59375-.816406-1.164063-1.328125-1.6875-.542969-.546875-1.132813-1.011719-1.757813-1.410157l-13.519531-13.519531 19.535156-19.019531c.0625-.0625.125-.125.1875-.1875l19.019531-19.535156 16.082032 16.085937c20.636718 20.636719 36.160156 20.992188 59.652344 21.527344 5.71875.132813 12.199218.28125 19.496093.742187 19.589844 1.234376 38.09375 8.222657 53.078125 19.886719zm0 0" data-original="#000000" class="active-path" data-old_color="#EBE9E9" fill="#EFEDED"/><path d="m317.421875 492.015625h-.269531c-5.515625 0-9.992188 4.472656-9.992188 9.992187 0 5.519532 4.476563 9.992188 9.992188 9.992188h.269531c5.519531 0 9.992187-4.472656 9.992187-9.992188 0-5.519531-4.472656-9.992187-9.992187-9.992187zm0 0" data-original="#000000" class="active-path" data-old_color="#EBE9E9" fill="#EFEDED"/></g> </svg>
