<?xml version="1.0"?>
<svg xmlns="http://www.w3.org/2000/svg" xmlns:xlink="http://www.w3.org/1999/xlink" version="1.1" id="Capa_1" x="0px" y="0px" width="512px" height="512px" viewBox="0 0 567.783 567.783" style="enable-background:new 0 0 567.783 567.783;" xml:space="preserve" class=""><g><g>
	<g>
		<path d="M364.244,236.81c0.512,0.676,0.77,1.606,1.561,1.196c1.051-0.547,2.174-0.618,3.334-0.538    c1.416,0.095,2.658,0.37,3.518-0.912c2.463-3.663,2.012-7.895,0.295-11.738c-1.268,0.744-1.723,2.625-2.648,3.706    c-0.553,0.649-1.676,0.456-1.514-0.554c0.141-0.869,0.768-1.665,1.266-2.362c0.453-0.636,0.961-1.264,1.311-1.967    c0.383-0.774-0.893-2.5-1.371-3.115c-1.453-1.876-3.271-3.449-4.727-5.337c-1.201,2.564-3.121,4.951-2.283,7.926    c0.266,0.948,0.881,2.411,0.023,3.265c-0.816,0.814-1.609-0.563-1.701-1.233c-0.205-1.478,0.281-2.871-0.238-4.348    c-0.621-1.763-2.178-2.417-3.828-2.972c-2.818-0.945-5.809-1.181-8.605-2.215c0.025,2.8-0.672,5.511-0.811,8.296    c-0.072,1.475-0.17,3.161,0.754,4.406c1.076,1.451,2.701,1.689,4.283,2.252c0.682,0.242,1.783,0.97,1.396,1.858    c-0.516,1.166-2.461,0.015-3.021-0.456c-2.576-2.173-5.611-1.129-8.635-0.851c1.188,1.86,2.062,3.831,3.125,5.756    c0.621,1.129,1.482,2.047,2.469,2.864c0.871-0.006,1.756-0.355,2.586-0.587c0.752-0.211,1.551-0.453,2.34-0.425    c0.863,0.031,1.506,1.037,0.545,1.548c-1.377,0.731-3.377,0.309-4.611,1.334c2.9,2.788,6.543,4.661,10.662,3.81    c1.525-0.315,1.881-0.881,2.309-2.338c0.359-1.206,0.65-2.42,1.516-3.381c0.342-0.383,0.896-0.456,0.594-0.921    c-0.244-0.376-0.49-0.75-0.734-1.123c-2.689-4.119-5.379-8.238-8.07-12.356c0.863,1.104,1.855,2.176,2.613,3.179    C360.049,231.256,362.148,234.031,364.244,236.81z" data-original="#000000" class="active-path" data-old_color="#E8E7E7" fill="#E8E8E8"/>
		<path d="M557.768,91.977c-0.529,0.719-2.508,2.647-3.453,1.408c-0.717-0.945,0.385-2.124,1.123-2.607    c1.717-1.123,3.576-1.873,4.439-3.901c0.74-1.748,0.141-3.718-0.367-5.45c-0.957-3.265-2.568-6.285-3.338-9.614    c-3.023,2.029-6.506,3.167-9.582,5.095c-1.803,1.129-3.463,2.353-3.693,4.624c-0.195,1.903,0.781,3.415,0.965,5.23    c0.082,0.823-0.465,2.684-1.668,1.952c-1.262-0.768-0.951-2.684-0.906-3.883c0.145-3.77-2.82-6.056-4.982-8.754    c-1.186,2.662-2.896,5.049-4.084,7.689c-0.389,0.866-1.41,3.28-0.734,4.088c0.615,0.734,1.398,1.331,2.121,1.958    c0.789,0.685,1.762,1.45,2.178,2.441c0.484,1.151-0.795,1.705-1.641,1.093c-1.404-1.019-2.486-3.125-4.203-3.642    c-0.938,5.055-0.264,10.208,3.711,13.853c1.389,1.276,2.785,0.591,4.439,0.074c1.354-0.422,2.709-0.664,4.113-0.315    c1.057,0.263,1.096-0.915,1.508-1.867c1.695-3.898,3.391-7.797,5.086-11.695c0.613-1.411,1.482-2.965,2.191-4.522    c-2.014,5.661-4.027,11.319-6.041,16.98c-0.045,0.125-0.088,0.251-0.135,0.376c-0.635-0.465-2.719,1.15-3.354,2.436    c-1,2.023-1.998,4.042-3.199,5.952c-2.508,3.975-5.473,7.663-8.645,11.2c-1.154,1.285-2.52,0.967-3.049-0.676    c-2.156-6.72-4.525-13.384-4.623-19.605c-0.027-1.726-0.361-1.814-0.762-0.135c-2.553,10.64,0.939,24.303-5.84,32.711    c-6.971,8.642-20.842,13.55-33.295,17.161c-25.102,7.28-55.854,5.551-83.486,9.088c-52.77,6.759-76.736,39.878-83.141,81.555    c-0.262,1.708-1.281,1.974-2.426,0.683c-6.139-6.916-15.004-12.739-20.664-19.896c-1.07-1.355-1.242-1.264-0.52,0.303    c3.867,8.391,7.896,16.791,12.561,25.264c2.369,4.274,5.842,8.614,7.398,12.882c1.84,5.024,0.236,9.385-0.611,13.525    c-0.799,3.929-1.785,7.784-3.055,11.497c-0.557,1.634-1.322,2.61-1.625,2.216s-0.326-0.3-0.082,0.227s-0.07,2.255-0.795,3.824    c-1.344,2.907-2.92,5.683-4.811,8.277c-9.045,12.442-24.367,20.429-33.777,32.54c-1.059,1.365-1.769,1.136-1.756-0.59    c0.016-2.108-0.052-4.211-0.217-6.307c-0.765-9.939-5.667-18.593-11.074-27.1c-0.927-1.457-0.799-3.715,0.284-5.059    c1.965-2.433,3.896-4.865,5.808-7.301c1.065-1.358,0.918-1.481-0.428-0.401c-2.142,1.724-4.538,3.296-7.06,4.799    c-1.484,0.884-3.464,0.389-4.373-1.08c-2.323-3.749-4.471-7.556-6.182-11.503c2.258-3.332,4.514-6.665,6.772-9.997    c-1.307-0.937-1.438-1.628-2.39-0.367c-1.188,1.573-2.378,3.143-3.565,4.716c-0.643,0.851-1.285,1.698-1.925,2.549    c-0.26-0.939-0.453-1.83-0.521-2.427c-0.079-0.694-0.15-1.39-0.208-2.084c-0.141-1.652-0.205-3.302-0.229-4.951    c0.279-0.021,0.566-0.042,0.854-0.058c1.918-0.11,3.779,0.019,5.505,0.939c1.304,0.692,1.741-0.841,2.598-1.955    c3.51-4.565,7.02-9.128,10.532-13.697c1.27-1.652,2.922-3.406,4.367-5.22c-4.507,6.775-9.015,13.546-13.525,20.321    c-0.41,0.618-0.82,1.233-1.23,1.848c-0.508,0.762,0.407,0.894,0.97,1.533c1.417,1.604,1.885,3.617,2.457,5.618    c0.691,2.414,1.27,3.36,3.788,3.901c6.806,1.466,12.855-1.582,17.693-6.147c-2.022-1.714-5.339-1.047-7.607-2.273    c-1.582-0.859-0.505-2.512,0.921-2.552c1.307-0.037,2.629,0.376,3.868,0.738c1.368,0.397,2.827,0.988,4.271,1.007    c1.644-1.34,3.082-2.846,4.128-4.704c1.784-3.167,3.259-6.417,5.251-9.477c-4.991-0.505-10-2.271-14.293,1.285    c-0.934,0.771-4.171,2.65-5.003,0.713c-0.63-1.478,1.203-2.662,2.335-3.054c2.623-0.909,5.318-1.282,7.121-3.666    c1.548-2.05,1.408-4.838,1.31-7.28c-0.187-4.605-1.303-9.104-1.221-13.73c-4.639,1.67-9.59,2.02-14.266,3.54    c-2.738,0.894-5.324,1.953-6.377,4.859c-0.881,2.436-0.098,4.746-0.456,7.188c-0.166,1.111-1.494,3.375-2.834,2.017    c-1.404-1.426-0.367-3.84,0.086-5.401c1.145-3.935-0.646-7.271-2.405-10.633c3.097-5.374,7.023-10.518,11.842-15.325    c3.739-3.708,7.953-7.209,12.512-10.523c2.806-2.047,3.109-3.843,8.021-2.31c3.244,1.013,6.414,2.071,9.984,1.888    c10.809-0.508,19.395-5.443,24.709-10.866c1.209-1.233,0.766-1.842-0.869-1.279c-7.543,2.595-18.531,5.447-27.646,5.187    c-1.725-0.049-1.799-0.691-0.18-1.294c41.156-15.327,74.297-42.479,88.406-71.016c0.174-0.355,0.312-0.716,0.48-1.071    c2.918-1.27,5.838-2.542,8.76-3.812c-0.494-1.227-0.281-1.766-1.498-1.31c-1.518,0.569-3.039,1.138-4.557,1.708    c-0.469,0.174-0.938,0.352-1.408,0.526c0.943-2.164,1.797-4.349,2.553-6.552c0.174,0.092,0.336,0.181,0.514,0.278    c1.383,0.768,2.619,1.68,3.414,3.082c0.6,1.056,1.582,0.181,2.67-0.214c4.451-1.628,8.906-3.256,13.361-4.884    c1.613-0.59,3.535-1.08,5.34-1.707c-6.123,2.723-12.242,5.45-18.365,8.173c-0.557,0.248-1.113,0.496-1.672,0.744    c-0.688,0.306-0.109,0.802,0,1.494c0.279,1.741-0.283,3.344-0.768,4.991c-0.584,1.986-0.596,2.898,0.916,4.385    c4.088,4.018,9.639,4.565,15.016,3.522c-0.652-2.083-3.254-3.081-4.291-4.936c-0.723-1.294,0.756-1.971,1.766-1.368    c0.924,0.551,1.662,1.419,2.365,2.218c0.777,0.878,1.529,1.934,2.527,2.583c1.736-0.208,3.4-0.621,4.945-1.453    c2.639-1.417,5.096-3.026,7.828-4.278c-3.25-2.552-5.955-5.989-10.508-5.407c-0.992,0.125-4.07,0.006-3.795-1.708    c0.211-1.307,2.01-1.322,2.971-1.095c2.225,0.523,4.264,1.453,6.57,0.587c1.982-0.744,3.111-2.745,4.119-4.486    c1.9-3.287,3.105-6.907,5.201-10.089c-3.963-0.885-7.561-2.825-11.484-3.825c-2.297-0.587-4.564-0.988-6.576,0.569    c-1.689,1.307-2.16,3.256-3.484,4.798c-0.604,0.701-2.527,1.689-2.859,0.153c-0.348-1.61,1.436-2.834,2.443-3.721    c3.154-2.785,2.727-6.934,3.246-10.756c-3.066,1.086-6.311,1.542-9.357,2.613c-0.998,0.352-3.74,1.383-3.871,2.552    c-0.119,1.065,0,2.154,0.047,3.219c0.055,1.166,0.184,2.54-0.297,3.638c-0.561,1.276-1.992,0.667-2.146-0.483    c-0.256-1.918,0.613-4.413-0.287-6.2c-0.588,0.383-1.156,0.787-1.705,1.212c0.453-3.607,0.5-7.261,0.771-10.894    c0.301-4.002,0.098-6.114-0.299-7.154c-0.615-1.612-2.406,1.466-2.467,3.191c-0.08,2.255-0.162,4.508-0.475,6.741    c-0.654,4.654-1.846,9.232-3.283,13.761c-0.523,1.646-1.9,1.916-3.057,0.633c-4.195-4.651-8.514-9.198-11.283-14.101    c0.805-0.239,1.645-0.263,2.5-0.205c1.418,0.095,2.66,0.37,3.52-0.912c2.463-3.663,2.01-7.895,0.293-11.738    c-1.266,0.744-1.723,2.625-2.646,3.706c-0.553,0.649-1.676,0.456-1.514-0.554c0.141-0.869,0.768-1.665,1.266-2.362    c0.453-0.637,0.961-1.264,1.311-1.968c0.383-0.774-0.895-2.5-1.371-3.115c-1.453-1.875-3.271-3.448-4.729-5.336    c-1.199,2.564-3.121,4.951-2.281,7.925c0.266,0.949,0.881,2.411,0.023,3.265c-0.816,0.814-1.609-0.563-1.701-1.233    c-0.205-1.478,0.281-2.87-0.238-4.348c-0.621-1.763-2.18-2.417-3.828-2.971c-2.818-0.945-5.809-1.181-8.605-2.215    c0.025,2.8-0.672,5.511-0.811,8.295c-0.074,1.475-0.172,3.161,0.752,4.407c1.078,1.45,2.703,1.689,4.285,2.252    c0.682,0.242,1.783,0.97,1.395,1.857c-0.514,1.166-2.459,0.015-3.02-0.456c-2.576-2.172-5.611-1.129-8.635-0.851    c1.188,1.86,2.062,3.831,3.123,5.756c0.621,1.129,1.484,2.047,2.471,2.864c0.871-0.006,1.756-0.355,2.586-0.587    c0.752-0.211,1.551-0.453,2.34-0.425c0.863,0.03,1.506,1.037,0.545,1.548c-1.377,0.731-3.379,0.309-4.611,1.334    c2.9,2.788,6.543,4.66,10.66,3.81c1.527-0.315,1.883-0.881,2.311-2.338c0.359-1.206,0.648-2.42,1.516-3.381    c0.342-0.382,0.896-0.459,0.594-0.921c-0.246-0.376-0.49-0.75-0.734-1.123c-2.689-4.119-5.381-8.237-8.07-12.356    c0.863,1.105,1.855,2.176,2.613,3.18c2.1,2.778,4.195,5.557,6.295,8.332c0.404,0.536,0.66,1.203,1.135,1.264    c0.043,0.168,0.102,0.336,0.146,0.505c-0.381-0.367-0.557-0.043-1.232,0.431c0.928,1.396,1.854,2.788,2.779,4.183    c3.219,8.421,8.053,16.891,5.932,25.016c-2.809,10.744-13.441,20.909-23.316,29.318c-5.471,4.657-11.625,8.862-18.146,12.821    c-0.645-0.648-1.287-1.294-1.934-1.943c-0.725,0.685-1.16,0.682-0.508,1.411c0.389,0.435,0.777,0.869,1.17,1.3    c-1.062,0.637-2.133,1.264-3.211,1.888c0.004-0.019,0.004-0.037,0.006-0.055c0.16-1.181,0.459-2.295,1.225-3.237    c0.576-0.71-0.307-1.157-0.881-1.812c-2.359-2.675-4.723-5.352-7.082-8.03c-0.854-0.967-1.725-2.182-2.658-3.274    c3.586,3.543,7.17,7.087,10.756,10.633c0.328,0.321,0.652,0.646,0.979,0.967c0.404,0.398,0.594-0.141,1.047-0.407    c1.145-0.67,2.424-0.716,3.709-0.829c1.551-0.135,2.193-0.374,2.82-1.842c1.699-3.966,0.564-8.005-1.643-11.49    c-1.281,1.028-1.27,3.124-2.285,4.357c-0.711,0.86-1.588,0.009-1.445-0.863c0.135-0.799,0.543-1.555,0.906-2.265    c0.404-0.787,0.936-1.604,1.119-2.479c-0.621-1.16-1.363-2.212-2.371-3.069c-1.717-1.459-3.516-2.742-5.141-4.314    c-0.898,2.978-2.566,5.814-0.912,8.846c0.359,0.661,1.117,2.849-0.158,3.127c-0.973,0.208-1.479-1.046-1.582-1.781    c-0.242-1.705-0.15-3.388-1.387-4.765c-1.064-1.184-2.775-1.429-4.271-1.658c-2.824-0.435-5.691-0.288-8.498-0.884    c0.465,3.02,0.092,6.071,0.463,9.097c0.217,1.772,0.557,3.47,2.199,4.456c1.377,0.826,2.873,0.621,4.318,1.129    c0.654,0.232,1.875,1.31,0.891,1.961c-1.035,0.686-2.379-0.229-3.275-0.691c-2.814-1.451-5.605-0.012-8.426,0.67    c1.6,1.852,2.805,4,4.393,5.842c0.521,0.603,1.992,2.243,2.85,2.013c0.777-0.208,1.512-0.59,2.242-0.915    c0.803-0.358,1.73-0.823,2.633-0.79c1.047,0.042,1.012,1.211,0.248,1.634c-1.273,0.707-3.26,0.78-4.266,1.9    c1.982,1.42,4.176,2.433,6.459,2.757c-14.174,7.724-29.266,14.863-42.745,23.134c-8.1,4.969-15,10.336-20.829,16.019    c-1.236,1.206-3.47,2.812-4.994,3.626c-0.698,0.374-1.38,0.756-2.047,1.151c-1.484,0.881-2.375,0.318-2.105-1.39    c2.408-15.257,2.209-30.131-1.365-43.969c0.985-1.454,1.968-2.907,2.953-4.361c-1.077-0.771-1.184-1.34-1.967-0.303    c-0.554,0.734-1.108,1.466-1.662,2.2c-0.395-1.359-0.823-2.708-1.285-4.042c0.991,0.07,1.955,0.27,2.874,0.759    c1.074,0.569,1.432-0.694,2.139-1.609c2.892-3.758,5.78-7.519,8.672-11.279c1.047-1.358,2.408-2.806,3.596-4.299    c-3.712,5.579-7.424,11.157-11.135,16.735c-0.337,0.508-0.676,1.013-1.013,1.524c-0.419,0.627,0.337,0.737,0.799,1.261    c1.166,1.322,1.551,2.977,2.022,4.626c0.569,1.989,1.047,2.767,3.122,3.213c5.603,1.206,10.584-1.301,14.568-5.064    c-1.665-1.411-4.397-0.863-6.264-1.873c-1.304-0.707-0.416-2.069,0.759-2.103c1.077-0.03,2.164,0.309,3.186,0.606    c1.126,0.328,2.329,0.814,3.516,0.829c1.355-1.102,2.537-2.344,3.399-3.874c1.469-2.61,2.684-5.285,4.324-7.803    c-4.112-0.416-8.234-1.87-11.771,1.056c-0.768,0.637-3.434,2.182-4.119,0.587c-0.52-1.218,0.992-2.194,1.922-2.515    c2.16-0.75,4.379-1.056,5.863-3.02c1.276-1.689,1.16-3.984,1.081-5.995c-0.153-3.794-1.074-7.497-1.007-11.307    c-3.819,1.377-7.898,1.662-11.748,2.916c-2.255,0.734-4.385,1.609-5.251,4.002c-0.725,2.007-0.08,3.908-0.376,5.921    c-0.134,0.915-1.23,2.779-2.332,1.662c-1.157-1.175-0.303-3.161,0.07-4.449c1.175-4.039-1.411-7.316-3.017-10.823    c-2.007,2.558-4.504,4.679-6.505,7.216c-0.655,0.832-2.417,3.167-1.903,4.226c0.468,0.964,1.153,1.821,1.762,2.693    c0.67,0.955,1.515,2.047,1.698,3.231c0.211,1.377-1.325,1.628-2.071,0.737c-1.246-1.484-1.845-4.054-3.562-5.08    c-0.245,0.539-0.462,1.086-0.667,1.637c-8.592-14.058-22.072-26.307-41.555-35.802c-0.208-2.252-0.417-4.504-0.625-6.76    c-1.211,0.08-1.619-0.26-1.57,0.93c0.062,1.487,0.12,2.974,0.181,4.458c0.006,0.132,0.009,0.26,0.015,0.392    c-0.049-0.021-0.092-0.046-0.141-0.067c-1.796-0.835-3.617-1.649-5.453-2.448c0.342-0.303,0.685-0.63,1.049-0.97    c1.065-0.985,2.212-1.799,3.663-2.09c1.092-0.22,0.612-1.325,0.578-2.387c-0.141-4.345-0.278-8.693-0.419-13.039    c-0.052-1.573,0.074-3.39,0.046-5.141c0.615,6.114,1.233,12.228,1.849,18.342c0.055,0.557,0.113,1.111,0.168,1.667    c0.07,0.688,0.667,0.328,1.301,0.429c1.594,0.257,2.833,1.206,4.125,2.099c1.561,1.077,2.35,1.353,4.082,0.462    c4.673-2.408,6.745-7.084,7.378-12.068c-2.001-0.031-3.617,1.949-5.529,2.319c-1.334,0.257-1.5-1.224-0.686-1.931    c0.747-0.646,1.713-1.04,2.61-1.423c0.988-0.425,2.124-0.78,2.974-1.459c0.318-1.57,0.435-3.137,0.153-4.722    c-0.477-2.702-1.172-5.306-1.478-8.045c-3.155,2.1-6.925,3.467-7.726,7.602c-0.175,0.899-1.163,3.546-2.577,2.812    c-1.077-0.56-0.575-2.13-0.101-2.901c1.096-1.787,2.488-3.296,2.399-5.551c-0.08-1.94-1.496-3.498-2.727-4.878    c-2.316-2.598-5.122-4.688-7.295-7.427c-1.906,3.198-4.63,5.774-6.628,8.902c-1.172,1.833-2.169,3.69-1.392,5.89    c0.652,1.846,2.215,2.815,3.179,4.416c0.438,0.725,0.747,2.687-0.686,2.534c-1.502-0.159-2.056-2.062-2.54-3.195    c-1.518-3.546-5.257-4.363-8.437-5.915c0.064,2.98-0.468,5.937-0.41,8.898c0.019,0.97,0.132,3.651,1.111,4.104    c0.891,0.41,1.876,0.618,2.818,0.884c1.031,0.288,2.264,0.569,3.084,1.304c0.952,0.854,0.009,1.925-1.038,1.729    c-1.744-0.328-3.669-1.799-5.48-1.527c0.6,2.265,1.527,4.388,2.809,6.212c-18.816-7.512-38.663-14.076-55.064-23.541    c-0.135-1.447-0.27-2.895-0.401-4.342c-0.992,0.067-1.325-0.214-1.285,0.762c0.037,0.887,0.07,1.778,0.107,2.665    c-1.065-0.636-2.105-1.294-3.136-1.958c0.731-0.6,1.508-1.111,2.469-1.301c0.894-0.18,0.502-1.083,0.474-1.952    c-0.113-3.556-0.229-7.111-0.343-10.667c-0.042-1.285,0.062-2.772,0.037-4.204c0.505,5,1.006,10,1.511,15.003    c0.046,0.456,0.092,0.909,0.138,1.365c0.059,0.563,0.545,0.267,1.065,0.352c1.307,0.211,2.316,0.988,3.375,1.72    c1.276,0.881,1.921,1.108,3.338,0.376c3.822-1.971,5.517-5.795,6.034-9.872c-1.637-0.024-2.959,1.594-4.522,1.897    c-1.093,0.211-1.227-1-0.56-1.579c0.609-0.529,1.401-0.851,2.136-1.166c0.808-0.349,1.738-0.637,2.433-1.193    c0.26-1.285,0.355-2.567,0.125-3.865c-0.392-2.212-0.961-4.342-1.208-6.582c-2.583,1.716-5.664,2.836-6.322,6.218    c-0.144,0.734-0.952,2.901-2.108,2.301c-0.881-0.456-0.468-1.744-0.083-2.375c0.897-1.463,2.035-2.696,1.961-4.541    c-0.064-1.588-1.224-2.861-2.23-3.99c-1.894-2.127-4.192-3.834-5.967-6.077c-1.561,2.616-3.785,4.725-5.422,7.283    c-0.958,1.499-1.775,3.02-1.139,4.819c0.536,1.509,1.815,2.304,2.601,3.611c0.358,0.594,0.609,2.197-0.563,2.075    c-1.23-0.132-1.68-1.689-2.078-2.613c-1.243-2.904-4.302-3.571-6.903-4.838c0.055,2.439-0.383,4.856-0.337,7.28    c0.016,0.792,0.107,2.987,0.909,3.357c0.728,0.336,1.536,0.508,2.304,0.722c0.844,0.235,1.851,0.465,2.521,1.065    c0.777,0.697,0.009,1.576-0.848,1.414c-0.906-0.168-1.87-0.691-2.831-1.01c-7.968-6.01-15.242-12.913-18.231-20.63    c-3.898-10.074,3.583-22.026,4.388-32.938c0.125-1.723-0.217-1.738-0.768-0.101c-1.983,5.894-6.267,11.524-10.364,17.268    c-1.003,1.405-2.402,1.294-3.109-0.281c-1.946-4.336-3.65-8.749-4.829-13.299c-0.566-2.185-0.903-4.413-1.239-6.644    c-0.257-1.708-2.384-4.562-2.812-2.892c-0.275,1.077-0.236,3.198,0.517,7.142c0.747,3.908,1.206,7.886,2.234,11.723    c2.273,8.47,5.909,16.598,10.835,24.235c17.264,26.748,53.277,49.952,95.91,60.5c1.677,0.416,11.894,5.309,14.914,7.025    c4.908,2.775,9.492,5.771,13.629,9.033c17.497,13.865,25.964,32.363,26.521,51.94c0.591,20.774-6.958,42.452-10.771,63.648    c-0.208,1.16-0.386,2.313-0.536,3.455c-0.227,1.711-0.995,1.861-1.848,0.358c-7.828-13.758-20.159-25.515-37.972-34.293    c1.818-2.687,3.638-5.371,5.456-8.057c-1.307-0.937-1.438-1.628-2.39-0.367c-1.187,1.573-2.377,3.143-3.564,4.715    c-0.637,0.845-1.276,1.689-1.913,2.531c-6.521-3.029-13.743-5.679-21.723-7.895c-21.038-5.833-44.391-9.269-65.432-14.955    c-1.438-2.742-2.876-5.48-4.314-8.222c-1.294,0.637-1.894,0.447-1.303,1.732c0.737,1.604,1.478,3.21,2.215,4.813    c0.131,0.285,0.263,0.569,0.395,0.854c-2.31-0.658-4.578-1.356-6.817-2.081c0.018-0.043,0.037-0.08,0.055-0.123    c0.726-1.563,1.616-2.977,3.076-3.95c1.098-0.734,0.07-1.732-0.444-2.879c-2.121-4.707-4.238-9.413-6.359-14.122    c-0.768-1.705-1.453-3.755-2.276-5.661c3.442,6.432,6.885,12.861,10.327,19.293c0.312,0.584,0.627,1.169,0.939,1.756    c0.389,0.725,0.878,0.058,1.622-0.116c1.867-0.438,3.654,0.043,5.478,0.438c2.2,0.478,3.191,0.419,4.688-1.34    c4.04-4.755,4.195-10.826,2.638-16.582c-2.209,0.872-3.087,3.776-5.018,5.046c-1.35,0.887-2.2-0.664-1.625-1.809    c0.526-1.046,1.411-1.916,2.222-2.745c0.894-0.915,1.977-1.814,2.604-2.947c-0.361-1.867-0.942-3.642-1.968-5.254    c-1.747-2.751-3.687-5.294-5.263-8.161c-2.515,3.73-6.031,6.937-5.04,11.836c0.214,1.065,0.327,4.419-1.555,4.253    c-1.435-0.125-1.594-2.078-1.426-3.136c0.392-2.458,1.239-4.743,0.119-7.179c-0.964-2.093-3.225-3.161-5.196-4.119    c-3.718-1.805-7.745-2.827-11.368-4.85c-0.646,4.373-2.466,8.431-3.247,12.77c-0.456,2.543-0.713,5.034,1.139,7.096    c1.551,1.729,3.706,2.087,5.486,3.406c0.808,0.6,2.032,2.61,0.392,3.094c-1.723,0.505-3.188-1.334-4.232-2.356    c-3.271-3.207-7.745-2.411-11.937-2.674c1.42,3.244,2.173,6.726,3.577,9.951c0.229,0.526,0.676,1.505,1.221,2.362    c-10.321-5.043-20.227-11.181-24.82-18.944c-5.582-9.443,1.129-22.347,0.618-33.284c-0.08-1.726-0.462-1.698-0.854-0.016    c-1.435,6.166-5.471,12.393-9.271,18.709c-0.891,1.478-2.399,1.545-3.363,0.11c-2.13-3.176-4.088-6.423-5.75-9.783    c0.08-0.006,0.159-0.009,0.242-0.015c-0.318-3.445-0.636-6.888-0.958-10.331c-0.992,0.067-1.325-0.214-1.285,0.762    c0.049,1.215,0.098,2.433,0.146,3.647c0.025,0.633,0.052,1.267,0.077,1.9c-0.655-1.698-1.215-3.424-1.741-5.165    c-0.049-0.159-0.131-0.336-0.214-0.511c0.373-0.187,0.743-0.38,1.172-0.465c0.894-0.181,0.501-1.083,0.474-1.952    c-0.113-3.556-0.229-7.112-0.343-10.667c-0.043-1.285,0.062-2.772,0.037-4.204c0.505,5,1.007,10,1.512,15.003    c0.046,0.456,0.092,0.909,0.138,1.365c0.058,0.563,0.545,0.266,1.065,0.352c1.307,0.211,2.316,0.988,3.375,1.72    c1.276,0.881,1.922,1.107,3.339,0.376c3.822-1.971,5.517-5.796,6.034-9.872c-1.637-0.024-2.959,1.594-4.523,1.897    c-1.092,0.211-1.227-1-0.56-1.579c0.609-0.53,1.401-0.851,2.136-1.166c0.808-0.349,1.738-0.637,2.433-1.193    c0.26-1.285,0.355-2.567,0.125-3.865c-0.392-2.212-0.961-4.342-1.208-6.583c-2.583,1.717-5.664,2.837-6.322,6.218    c-0.144,0.734-0.952,2.901-2.108,2.301c-0.881-0.456-0.468-1.745-0.083-2.375c0.896-1.462,2.035-2.696,1.961-4.541    c-0.064-1.588-1.224-2.861-2.228-3.99c-1.894-2.126-4.192-3.834-5.967-6.077c-1.561,2.616-3.786,4.725-5.422,7.283    c-0.958,1.499-1.775,3.02-1.139,4.819c0.536,1.509,1.815,2.304,2.601,3.611c0.358,0.593,0.609,2.197-0.563,2.075    c-1.23-0.132-1.68-1.689-2.078-2.613c-1.242-2.904-4.302-3.571-6.903-4.838c0.055,2.439-0.383,4.856-0.337,7.28    c0.016,0.792,0.107,2.986,0.909,3.357c0.728,0.336,1.536,0.508,2.304,0.722c0.844,0.236,1.851,0.465,2.521,1.065    c0.777,0.698,0.006,1.576-0.848,1.414c-1.426-0.266-2.999-1.472-4.483-1.249c1.102,4.158,3.458,7.815,7.766,9.149    c1.071,0.333,1.79-0.098,2.5-0.722c0.232,0.86,0.536,1.842,0.939,2.999c1.322,3.773,2.335,7.65,3.959,11.31    c3.586,8.082,8.632,15.63,15.031,22.512c22.479,24.156,65.246,42.133,113.673,46.549c1.72,0.156,1.793,0.737,0.125,1.184    c-9.939,2.671-22.898,2.656-31.802,2.014c-1.723-0.123-1.965,0.544-0.459,1.386c7.105,3.966,17.696,6.643,29.587,4.391    c3.901-0.722,7.06-2.552,10.303-4.352c4.914-2.727,5.694-1.062,9.241,0.214c5.759,2.062,11.19,4.388,16.16,7.041    c9.795,5.257,17.534,11.793,23.354,19.22c-0.052-0.024-0.092-0.064-0.144-0.092c-3.268-1.594-6.597-2.876-9.768-4.685    c-0.211,5.012-1.68,10.116,2.124,14.192c0.826,0.888,2.892,4.006,1.006,4.951c-1.438,0.719-2.729-1.043-3.185-2.151    c-1.062-2.567-1.591-5.233-4.079-6.891c-2.139-1.426-4.915-1.12-7.344-0.878c-4.587,0.456-9.012,1.836-13.635,2.029    c1.94,4.532,2.58,9.456,4.373,14.033c1.053,2.681,2.262,5.199,5.227,6.081c2.485,0.737,4.743-0.181,7.203,0.033    c1.117,0.098,3.458,1.294,2.179,2.708c-1.34,1.484-3.81,0.594-5.397,0.232c-4.982-1.138-8.77,2.234-12.907,4.428    c3.244,2.253,5.995,5.126,9.21,7.373c1.056,0.734,4.012,2.705,5.26,2.007c1.135-0.636,2.124-1.526,3.14-2.328    c1.111-0.879,2.372-1.984,3.797-2.29c1.655-0.354,2.069,1.491,1.043,2.458c-1.708,1.612-4.783,2.527-5.906,4.682    c6.493,2.516,13.522,2.916,19.37-1.459c2.047-1.53,1.487-3.56,1.215-5.891c-0.223-1.91-0.202-3.773,0.615-5.551    c0.615-1.341-0.942-1.689-2.105-2.479c-4.764-3.234-9.525-6.472-14.29-9.707c-1.723-1.172-3.574-2.717-5.471-4.052    c7.029,4.104,14.055,8.204,21.083,12.307c0.639,0.374,1.279,0.747,1.918,1.12c0.792,0.462,0.869-0.459,1.472-1.059    c1.518-1.509,3.498-2.093,5.462-2.781c0.205-0.07,0.382-0.141,0.566-0.211c0.162,0.811,0.333,1.621,0.465,2.441    c0.361,2.237,0.581,4.508,0.75,6.787c-2.772-1.646-5.542-3.296-8.314-4.941c-0.857,1.361-1.539,1.529-0.227,2.408    c1.64,1.092,3.277,2.188,4.917,3.28c1.276,0.851,2.549,1.701,3.825,2.552c0.134,3.675,0.076,7.393-0.128,11.145    c-0.095,1.723-1.53,2.678-3.204,2.258c-1.233-0.309-2.503-0.572-3.816-0.786c-1.704-0.275-1.747-0.027-0.131,0.588    c0.851,0.324,1.667,0.673,2.451,1.046c1.561,0.741,1.426,1.047-0.199,0.459c-2.172-0.786-4.269-1.652-6.227-2.668    c-1.533-0.796-1.649-0.643-0.346,0.492c2.702,2.351,5.435,4.688,8.21,7.011c1.325,1.107,2.258,3.391,2.062,5.107    c-0.459,4.015-0.976,8.042-1.478,12.065c-0.318-0.343-0.597-0.716-0.961-1.025c-2.433-2.068-4.985-3.889-7.289-6.12    c-1.276,4.22-3.638,8.241-1.294,12.543c0.508,0.937,1.585,4.043-0.224,4.435c-1.38,0.297-2.093-1.484-2.243-2.524    c-0.342-2.415-0.211-4.802-1.964-6.757c-1.508-1.68-3.935-2.025-6.059-2.354c-4.002-0.614-8.069-0.406-12.047-1.251    c0.661,4.281,0.128,8.607,0.655,12.895c0.309,2.513,0.79,4.921,3.118,6.316c1.952,1.169,4.076,0.881,6.123,1.6    c0.93,0.328,2.659,1.857,1.264,2.782c-1.466,0.97-3.372-0.328-4.645-0.982c-3.99-2.057-7.95-0.016-11.949,0.948    c2.268,2.626,3.981,5.67,6.227,8.283c0.737,0.857,2.824,3.18,4.036,2.855c1.105-0.294,2.142-0.836,3.179-1.298    c1.139-0.505,2.451-1.169,3.73-1.116c1.484,0.061,1.435,1.72,0.352,2.319c-1.805,1-4.621,1.104-6.046,2.692    c4.979,3.559,10.869,5.435,16.803,2.99c2.075-0.854,2.041-2.702,2.319-4.75c0.227-1.673,0.652-3.255,1.735-4.59    c0.817-1.007-0.435-1.643-1.251-2.567c-3.348-3.794-6.692-7.589-10.04-11.383c-1.211-1.371-2.448-3.094-3.77-4.642    c5.083,5.024,10.168,10.052,15.251,15.076c0.462,0.456,0.924,0.915,1.386,1.371c0.572,0.566,0.838-0.202,1.484-0.578    c0.031-0.019,0.061-0.025,0.092-0.04c0.021,0.777,0.067,1.542,0.113,2.311c-0.465-0.469-0.93-0.937-1.398-1.405    c-1.028,0.971-1.646,0.968-0.719,2.002c0.792,0.881,1.582,1.766,2.375,2.646c1.438,14.109,6.818,26.649,14.275,38.853    c0.9,1.476,1.542,3.329,1.414,4.168c-0.129,0.839-1.432,0.799-2.971,0.021c-6.221-3.14-13.933-5.41-23.094-5.483    c-1.726-0.016-1.738,0.214-0.042,0.541c10.835,2.1,17.625,7.853,22.821,14.318c1.083,1.347,1.79,3.877,1.705,5.603    c-0.615,12.252,0.618,24.248,4.832,35.521c0.903,2.421-8.559,66.821-13.516,90.692h-72.531c-5.915,0-10.71,4.795-10.71,10.71    s4.795,10.71,10.71,10.71h231.712c5.916,0,10.711-4.795,10.711-10.71s-4.795-10.71-10.711-10.71H302.01    c-2.295-12.834-5.859-39.392-4.85-76.76c0.432-5.05,0.869-10.092,1.402-15.102c0.492-4.59-0.381-12.02,2.992-14.997    c2.15-1.894,4.092-3.947,6-6.016c8.24-8.926,16.904-21.79,33.881-22.642c1.727-0.085,1.762-0.336,0.055-0.6    c-10.039-1.548-18.779,0.459-25.617,3.654c-1.564,0.731-1.84,0.389-0.689-0.9c13.812-15.502,24.373-31.845,27.24-53.639    c0.188-1.423,0.357-2.854,0.52-4.29c0.074-0.064,0.148-0.131,0.225-0.195c-0.076-0.089-0.113-0.15-0.178-0.236    c0.088-0.795,0.172-1.591,0.25-2.39c0.295-0.275,0.6-0.578,0.934-0.838c4.496-3.517,8.99-7.029,13.486-10.545    c1.625-1.273,3.645-2.549,5.477-3.936c-5.998,5.389-11.994,10.777-17.992,16.166c-0.545,0.489-1.092,0.979-1.637,1.472    c-0.678,0.606,0.17,0.958,0.553,1.711c0.965,1.888,0.916,3.936,0.973,5.997c0.068,2.488,0.389,3.538,2.676,4.679    c6.168,3.085,12.727,1.656,18.494-1.535c-1.518-2.146-4.865-2.323-6.742-4.058c-1.305-1.215,0.135-2.537,1.516-2.222    c1.264,0.287,2.43,1.01,3.531,1.661c1.215,0.72,2.469,1.646,3.85,2.02c1.91-0.878,3.66-1.971,5.123-3.494    c2.494-2.602,4.709-5.353,7.373-7.8c-4.666-1.717-9.035-4.646-14.033-2.295c-1.086,0.511-4.654,1.515-4.975-0.551    c-0.242-1.573,1.811-2.259,2.992-2.356c2.742-0.227,5.42,0.082,7.736-1.763c1.992-1.585,2.545-4.296,3.055-6.665    c0.957-4.467,0.994-9.058,2.215-13.479c-4.865,0.459-9.701-0.429-14.562-0.123c-2.85,0.181-5.592,0.561-7.316,3.091    c-1.447,2.121-1.264,4.529-2.213,6.787c-0.432,1.025-2.268,2.87-3.217,1.236c-0.994-1.714,0.594-3.776,1.418-5.162    c2.582-4.357,0.547-8.951-0.273-13.517c-1.756,1.347-3.646,2.485-5.523,3.645c1.057-8.632,2.605-17.047,5.367-24.924    c6.484-18.479,20.176-33.525,41.062-41.414c4.934-1.848,10.209-3.308,15.729-4.461c1.949-0.41,6.463-1.096,10.289-1.585    c3.387,2.252,6.773,4.504,10.162,6.756c0.828-1.178,1.447-1.3,0.311-2.145c-1.416-1.053-2.836-2.105-4.252-3.158    c-0.846-0.627-1.688-1.251-2.531-1.878c1.123-0.11,1.982-0.171,2.365-0.144c2.143,0.144,4.275,0.224,6.404,0.3    c0.098,1.665-0.016,3.28-0.805,4.789c-0.611,1.172,0.768,1.555,1.771,2.313c4.119,3.112,8.238,6.221,12.359,9.333    c1.49,1.126,3.076,2.592,4.713,3.871c-6.107-3.987-12.213-7.977-18.32-11.964c-0.557-0.364-1.111-0.726-1.668-1.089    c-0.688-0.45-0.799,0.373-1.365,0.881c-1.428,1.282-3.227,1.716-5.014,2.246c-2.162,0.639-3.002,1.163-3.471,3.427    c-1.262,6.111,1.518,11.512,5.648,15.811c1.521-1.827,0.896-4.795,1.98-6.836c0.758-1.426,2.248-0.471,2.295,0.805    c0.043,1.172-0.318,2.359-0.631,3.473c-0.346,1.23-0.863,2.543-0.869,3.837c1.213,1.462,2.576,2.742,4.248,3.663    c2.854,1.573,5.777,2.87,8.533,4.633c0.414-4.479,1.959-8.981-1.26-12.803c-0.701-0.833-2.408-3.718-0.68-4.477    c1.318-0.578,2.396,1.059,2.758,2.069c0.834,2.344,1.189,4.758,3.34,6.355c1.852,1.374,4.35,1.224,6.537,1.117    c4.127-0.202,8.148-1.239,12.301-1.203c-1.533-4.146-1.885-8.581-3.283-12.76c-0.82-2.448-1.793-4.758-4.406-5.68    c-2.191-0.771-4.254-0.052-6.447-0.352c-0.998-0.138-3.035-1.313-1.83-2.524c1.268-1.27,3.439-0.361,4.844,0.037    c4.41,1.242,7.953-1.604,11.754-3.384c-2.504-1.931-4.645-4.266-7.051-6.282c31.191-2.879,58.988-12.932,77.381-28.073    c7.014-5.777,12.951-12.414,17.691-19.792c2.146-3.341,3.793-6.989,5.693-10.486c1.916-3.528,2.602-5.536,2.666-6.646    c0.102-1.723-2.795,0.349-3.559,1.897c-1,2.023-1.998,4.042-3.201,5.952c-2.506,3.975-5.471,7.662-8.645,11.199    c-1.154,1.285-2.518,0.967-3.047-0.676c-2.158-6.72-4.527-13.384-4.625-19.605c-0.027-1.726-0.361-1.814-0.762-0.134    c-2.551,10.64,0.939,24.302-5.838,32.711c-6.971,8.645-20.842,13.549-33.297,17.164c-25.1,7.279-55.854,5.551-83.482,9.088    c-18.111,2.32-32.758,7.803-44.535,15.615c-0.535-0.719-1.07-1.441-1.604-2.16c-0.709-0.955-1.42-1.913-2.129-2.867    c-0.57-0.768-0.652-0.349-1.447,0.208c1.27,1.909,2.539,3.822,3.809,5.731c-21.658,14.988-33.109,38.213-37.23,65.032    c-0.264,1.707-1.283,1.974-2.43,0.682c-1.652-1.86-3.5-3.638-5.432-5.389c-1.279-1.159-1.77-3.354-1.135-4.96    c2.404-6.083,4.158-12.579,5.088-19.658c2.816-21.353,2.217-44.297,9.094-63.908c6.484-18.479,20.176-33.525,41.062-41.414    c4.934-1.848,10.209-3.308,15.729-4.458c3.4-0.716,4.416-2.228,8.262,1.184c2.541,2.252,4.998,4.523,8.334,5.82    c10.064,3.972,19.92,2.996,26.988,0.236c1.609-0.627,1.453-1.365-0.266-1.524c-7.943-0.731-19.135-2.641-27.338-6.619    c-1.555-0.752-1.355-1.368,0.367-1.254c14.246,0.949,28.219,0.386,41.453-1.469c2.949,1.961,5.9,3.92,8.85,5.881    c0.83-1.178,1.447-1.301,0.312-2.145c-1.418-1.053-2.838-2.105-4.254-3.158c-0.492-0.367-0.984-0.731-1.48-1.098    c2.588-0.41,5.143-0.872,7.668-1.383c0.016,0.199,0.033,0.401,0.045,0.606c0.117,1.72,0.014,3.387-0.801,4.942    c-0.611,1.172,0.768,1.554,1.771,2.313c4.119,3.112,8.238,6.221,12.359,9.333c1.49,1.126,3.076,2.595,4.715,3.874    c-6.107-3.987-12.215-7.977-18.32-11.964c-0.557-0.364-1.109-0.725-1.666-1.089c-0.689-0.45-0.799,0.373-1.369,0.881    c-1.426,1.282-3.229,1.716-5.016,2.246c-2.16,0.639-3.002,1.163-3.469,3.427c-1.262,6.11,1.518,11.512,5.648,15.811    c1.521-1.827,0.896-4.795,1.98-6.836c0.758-1.426,2.248-0.471,2.295,0.805c0.043,1.172-0.318,2.359-0.631,3.473    c-0.346,1.23-0.863,2.543-0.869,3.837c1.211,1.463,2.576,2.742,4.248,3.663c2.854,1.573,5.777,2.87,8.533,4.633    c0.414-4.48,1.959-8.981-1.26-12.803c-0.701-0.833-2.408-3.718-0.68-4.477c1.318-0.578,2.396,1.059,2.756,2.069    c0.836,2.344,1.191,4.758,3.342,6.355c1.852,1.374,4.35,1.224,6.537,1.117c4.127-0.202,8.148-1.239,12.301-1.203    c-1.533-4.146-1.885-8.581-3.283-12.76c-0.82-2.448-1.793-4.758-4.406-5.679c-2.191-0.771-4.254-0.052-6.447-0.352    c-0.998-0.138-3.035-1.313-1.83-2.524c1.266-1.27,3.439-0.361,4.844,0.037c4.41,1.242,7.953-1.604,11.754-3.384    c-2.803-2.161-5.135-4.859-7.916-7.014c-0.912-0.704-3.471-2.601-4.619-2.032c-1.043,0.517-1.971,1.273-2.916,1.943    c-1.033,0.738-2.211,1.668-3.5,1.879c-1.496,0.242-1.783-1.426-0.822-2.246c1.551-1.325,4.186-2.025,5.354-3.767    c15.074-4.917,28.293-11.753,38.557-20.202c7.014-5.777,12.949-12.415,17.693-19.792c0.99-1.545,1.873-3.158,2.727-4.786    c0.213,0.086,0.432,0.171,0.648,0.254c0.611-1.68,1.225-3.356,1.84-5.037c0.162-0.306,0.316-0.615,0.482-0.918    c1.35-2.488,2.066-4.189,2.408-5.382c0.188,0.076,0.404,0.15,0.605,0.291c1.305,0.896,1.998,2.252,2.768,3.583    c0.926,1.607,1.512,2.179,3.414,2.115c5.135-0.171,8.92-3.437,11.566-7.577c-1.756-0.866-4.012,0.208-5.855-0.263    c-1.289-0.331-0.812-1.708,0.201-1.992c0.93-0.26,1.949-0.202,2.9-0.165c1.053,0.04,2.201,0.199,3.238-0.043    c0.936-1.254,1.695-2.592,2.111-4.109c0.707-2.589,1.184-5.181,2.059-7.727C564.109,89.027,560.205,88.66,557.768,91.977z     M69.521,184.793c-0.208,0.042-0.429,0.067-0.652,0.092c-0.187-0.08-0.379-0.153-0.566-0.236c-1.472-0.652-2.962-1.325-4.453-2.02    c0.688-0.064,1.374-0.156,2.053-0.236c1.261-0.15,2.742-0.401,3.975,0.034C71.308,182.932,70.757,184.536,69.521,184.793z     M206.924,257.416c-0.765,1.631-2.479,0.652-2.601-0.771c-0.113-1.304,0.22-2.644,0.508-3.904c0.119-0.53,0.263-1.077,0.398-1.628    c0.805,1.34,1.561,2.702,2.255,4.085C207.386,255.983,207.239,256.739,206.924,257.416z M230.36,304.363    c0.117,0.275,0.125,0.566,0.016,0.646c-0.11,0.08-0.242-0.138-0.248-0.496C230.125,304.158,230.244,304.09,230.36,304.363z     M234.525,351.141c-0.419,2.035-0.857,4.069-1.304,6.107c-0.37,1.687-1.254,1.778-1.848,0.156    c-2.555-6.989-3.4-14.532-3.461-22.228c-0.027-3.134-0.459-6.454,0.563-9.856c0.499-1.652,1.793-1.582,2.488,0    c0.462,1.05,0.918,2.074,1.383,3.069c1.193,2.552,2.414,5.098,3.889,7.558C238.543,339.807,235.453,346.622,234.525,351.141z     M446.301,236.286c-0.379,0.178-0.764,0.325-1.162,0.392c-0.512,0.083-0.869-0.067-1.096-0.318    C444.793,236.338,445.549,236.314,446.301,236.286z M326.613,342.54c-1.922,9.446-4.869,18.488-10.367,26.04    c-9.076,12.482-24.465,20.478-33.869,32.653c-1.056,1.368-1.695,1.142-1.542-0.581c0.747-8.357,1.392-16.757,2.273-25.062    c0.493-4.59-0.379-12.02,2.993-14.997c2.15-1.895,4.092-3.947,6-6.016c8.043-8.712,16.51-21.139,32.693-22.522    c1.721-0.146,3.324,1.273,3.211,2.996C327.828,337.677,327.102,340.146,326.613,342.54z M327.225,329.014    c0.166,0.449,0.295,0.894,0.4,1.331c0.178,0.747-1.113,1.083-2.826,0.866c-9.514-1.206-17.818,0.731-24.373,3.782    c-1.566,0.728-1.842,0.385-0.691-0.903c5.914-6.64,11.23-13.437,15.602-20.746c0.889-1.481,2.207-1.473,3.012,0.046    c0.484,0.911,0.973,1.823,1.479,2.738C322.191,320.403,325.668,324.743,327.225,329.014z" data-original="#000000" class="active-path" data-old_color="#E8E7E7" fill="#E8E8E8"/>
		<path d="M176.988,191.2c-1.512-1.802-2.24-4.923-4.327-6.169c-2.895,6.334-3.706,13.327,0.318,19.422    c1.404,2.133,3.464,1.692,5.811,1.558c1.918-0.11,3.779,0.019,5.505,0.939c1.304,0.691,1.741-0.841,2.598-1.956    c3.51-4.565,7.02-9.128,10.533-13.696c1.27-1.652,2.922-3.406,4.367-5.224c-4.507,6.775-9.015,13.547-13.525,20.322    c-0.41,0.618-0.82,1.233-1.23,1.848c-0.508,0.762,0.407,0.894,0.97,1.533c1.417,1.603,1.885,3.617,2.457,5.618    c0.691,2.415,1.27,3.36,3.788,3.902c6.806,1.466,12.855-1.582,17.693-6.147c-2.022-1.714-5.339-1.047-7.607-2.274    c-1.582-0.86-0.505-2.512,0.921-2.552c1.307-0.037,2.629,0.376,3.868,0.737c1.368,0.398,2.827,0.988,4.271,1.007    c1.644-1.34,3.082-2.846,4.128-4.703c1.784-3.167,3.259-6.417,5.251-9.477c-4.991-0.505-10-2.271-14.293,1.285    c-0.934,0.771-4.171,2.65-5.003,0.713c-0.63-1.478,1.203-2.662,2.335-3.054c2.623-0.909,5.318-1.282,7.121-3.666    c1.548-2.05,1.408-4.838,1.31-7.28c-0.187-4.605-1.304-9.104-1.221-13.73c-4.639,1.671-9.59,2.02-14.266,3.541    c-2.739,0.894-5.325,1.952-6.377,4.859c-0.881,2.436-0.098,4.746-0.456,7.188c-0.166,1.111-1.494,3.375-2.834,2.017    c-1.404-1.426-0.367-3.84,0.086-5.401c1.429-4.908-1.714-8.886-3.663-13.143c-2.438,3.106-5.468,5.683-7.897,8.761    c-0.796,1.01-2.935,3.846-2.311,5.132c0.566,1.169,1.398,2.209,2.139,3.271c0.814,1.16,1.839,2.485,2.062,3.926    C179.757,191.978,177.894,192.284,176.988,191.2z" data-original="#000000" class="active-path" data-old_color="#E8E7E7" fill="#E8E8E8"/>
	</g>
</g></g> </svg>
