<?xml version="1.0"?>
<svg xmlns="http://www.w3.org/2000/svg" xmlns:xlink="http://www.w3.org/1999/xlink" version="1.1" id="Capa_1" x="0px" y="0px" width="512px" height="512px" viewBox="0 0 41.795 41.796" style="enable-background:new 0 0 41.795 41.796;" xml:space="preserve"><g><g>
	<g>
		<path d="M21.268,10.467c2.188,1.25,5.129-1.397,6.431-2.879c1.434-1.631,3.278-5.086,2.125-7.278    c-0.025-0.047-0.069-0.073-0.104-0.109c-0.131-0.119-0.291-0.181-0.464-0.198c-0.282-0.027-0.951,0.116-1.489,0.242    c-2.245,0.526-4.306,1.843-5.764,3.612C20.633,5.518,18.732,9.02,21.268,10.467z M22.034,7.191    c0.029-0.088,0.061-0.178,0.098-0.268c0.202-0.514,0.747-1.221,1.132-1.617c0.796-0.818,1.555-1.598,2.279-2.344    c0.386-0.396,1.094-0.928,1.612-1.118c0.021-0.008,0.043-0.016,0.064-0.023c0.52-0.186,0.97-0.245,0.98-0.213    c0.013,0.032-0.109,0.189-0.268,0.351c-0.156,0.162-0.158,0.196,0.005,0.091c0.162-0.104,0.328,0.263,0.222,0.805    c-0.224,1.127-0.854,2.351-1.254,3.05c-0.379,0.658-1.808,2.478-3.104,3.124c-0.495,0.246-0.906,0.169-0.837,0.101    c0.042-0.042,0.084-0.083,0.126-0.124c0.235-0.261,0.468-0.521,0.698-0.782c0.367-0.413,0.74-1.189,0.907-1.715    c0.222-0.699,0.528-1.33,0.89-1.905c0.293-0.468,0.259-0.499-0.127-0.104c-0.961,0.986-1.922,1.972-2.883,2.958    C22.191,7.854,21.862,7.716,22.034,7.191z" data-original="#000000" class="active-path" data-old_color="#000000" fill="#EFEDED"/>
		<path d="M15.652,41.676c3.686-0.47,6.965-1.223,10.637-0.086c1.116,0.346,2.74,0.232,3.823-0.167    c4.297-1.582,7.061-6.921,8.388-10.957c0.006-0.017,0.004-0.03-0.002-0.045c-0.01-0.022-0.007-0.062-0.013-0.089    c-0.004-0.015-0.015-0.026-0.031-0.037c-2.571-1.421-4.245-3.196-5.128-6.033c-1.271-4.08,1.003-6.525,3.131-9.486    c1.018-1.417-0.071-2.457-1.814-3.18c-0.51-0.212-0.912-0.347-0.881-0.353c0.033-0.006,0.023-0.017-0.022-0.026    c-0.047-0.009-0.514-0.146-1.05-0.276c-2.205-0.535-4.568-0.741-5.286-0.672c-1.517,0.146-3.028,0.779-4.442,1.292    c-2.791,1.012-5.783-1.515-8.738-1.308c-3.987,0.279-7.117,2.601-9.19,5.887C1.675,21.467,3.77,29.039,6.303,34.2    C8.092,37.85,11.14,42.251,15.652,41.676z M6.835,15.951c0.948-1.789,2.523-3.118,4.37-3.851c0.513-0.204,0.611-0.021,0.198,0.345    c-1.412,1.25-2.822,2.501-4.231,3.753C6.759,16.564,6.576,16.439,6.835,15.951z M6.76,27.259c0.335-0.293,0.67-0.585,1.005-0.878    c0.417-0.362,0.751-0.679,0.747-0.708c-0.003-0.027-0.349,0.238-0.771,0.596c-0.153,0.129-0.296,0.25-0.426,0.358    c-0.422,0.356-0.899,0.75-1.057,0.891c-0.158,0.14-0.347,0.005-0.417-0.302c-0.07-0.306,0.223-0.851,0.641-1.212    c0.369-0.319,0.739-0.64,1.109-0.96c0.417-0.361,0.751-0.695,0.744-0.747c-0.005-0.029-0.01-0.061-0.012-0.092    c0-0.2,0-0.397,0-0.598c0-0.33-0.332-0.296-0.741,0.075c-0.426,0.386-0.852,0.771-1.277,1.156c-0.409,0.371-0.789,0.3-0.827-0.163    c-0.037-0.461,0.28-1.135,0.69-1.506c0.525-0.475,1.046-0.945,1.56-1.411c0.41-0.369,0.806-1.113,0.933-1.651    c0.081-0.344,0.176-0.681,0.284-1.01c0.172-0.525,0.013-0.643-0.405-0.282c-0.771,0.668-1.547,1.339-2.324,2.013    c-0.417,0.362-0.724,0.207-0.651-0.341c0.08-0.607,0.19-1.21,0.332-1.805c0.128-0.538,0.603-1.253,1.026-1.607    c1.577-1.318,3.152-2.64,4.726-3.987c0.34-0.302,0.681-0.603,1.021-0.903c0.415-0.365,1.195-0.725,1.747-0.737    c1.057-0.023,2.132,0.132,3.177,0.491c1.056,0.362,2.099,0.971,3.267,0.889c0.588-0.041,1.221-0.18,1.764-0.391    c0.963-0.375,3.079-0.879,5.269-1.045c0.552-0.042,0.753,0.004,0.45,0.082c-0.303,0.077-0.838,0.415-1.208,0.736    c-0.371,0.321-0.508,0.619-0.299,0.649c0.209,0.03,0.713-0.259,1.124-0.629c0.081-0.074,0.163-0.147,0.245-0.221    c0.41-0.37,1.164-0.681,1.683-0.661c0.519,0.021,0.704,0.276,0.421,0.529s-0.495,0.453-0.476,0.446    c0.013-0.005,0.025-0.009,0.038-0.013c0.048-0.015,0.097-0.031,0.145-0.046c0.08-0.025,0.356-0.216,0.617-0.425    c0.262-0.209,0.919-0.324,1.451-0.176c1.662,0.465,2.77,1.487,2.466,3.442c-0.069,0.453-2.45,3.218-2.774,3.851    c-0.688,1.339-0.617,2.928-0.601,4.376c0.039,3.154,2.056,5.476,4.521,7.068c0.464,0.3,0.717,0.939,0.524,1.458    c-1.229,3.324-3.332,7.2-6.564,8.284c-0.524,0.176-0.954,0.217-0.933,0.196c0.021-0.02-0.07-0.047-0.207-0.06    c-0.08-0.008-0.161-0.015-0.246-0.016c-0.236-0.004-0.463,0.004-0.682,0.019c-0.375,0.025-1.03,0.021-1.456-0.087    c-0.248-0.062-0.5-0.14-0.759-0.239c-2.303-0.881-4.45-0.599-6.741,0.098c-1.503,0.455-2.594,0.679-3.528,0.6    c-0.55-0.046-0.692-0.458-0.345-0.764c0.348-0.308,0.554-0.634,0.459-0.729c-0.058-0.059-0.115-0.117-0.169-0.175    c-0.093-0.099-0.182-0.202-0.271-0.305c-0.147-0.172-0.616-0.03-1.047,0.315c-0.035,0.029-0.071,0.059-0.107,0.086    c-0.43,0.348-1.135,0.354-1.535-0.025c-0.281-0.269-0.575-0.572-0.891-0.915c-0.138-0.149-0.268-0.307-0.395-0.466    c-0.21-0.264-0.039-0.782,0.373-1.149c0.127-0.113,0.254-0.227,0.381-0.338c0.412-0.367,0.694-0.743,0.633-0.84    c-0.062-0.098-0.459,0.105-0.888,0.455c-0.142,0.114-0.283,0.229-0.425,0.345c-0.429,0.349-0.973,0.357-1.2,0.009    s-0.051-0.917,0.382-1.261c0.154-0.123,0.309-0.246,0.463-0.369c0.432-0.344,0.636-0.877,0.466-1.194    c-0.17-0.316-0.646-0.294-1.072,0.057c-0.163,0.133-0.325,0.267-0.488,0.399c-0.428,0.351-0.99,0.241-1.246-0.248    c-0.198-0.379-0.39-0.758-0.575-1.135c-0.108-0.219-0.208-0.443-0.305-0.668c-0.16-0.374-0.055-0.868,0.226-1.1    c0.169-0.14,0.338-0.279,0.51-0.421c0.204-0.185,0.407-0.368,0.611-0.553c0.338-0.305,0.529-0.823,0.44-1.162    c-0.09-0.338-0.493-0.319-0.909,0.043c-0.284,0.249-0.567,0.496-0.845,0.738c-0.12,0.114-0.241,0.228-0.362,0.34    c-0.201,0.188-0.514-0.083-0.67-0.611c-0.013-0.043-0.025-0.087-0.038-0.13C6.111,28.354,6.345,27.623,6.76,27.259z" data-original="#000000" class="active-path" data-old_color="#000000" fill="#EFEDED"/>
	</g>
</g></g> </svg>
